<?xml version="1.0" encoding="UTF-8"?>
<svg id="_Слой_2" data-name="Слой 2" xmlns="http://www.w3.org/2000/svg" xmlns:xlink="http://www.w3.org/1999/xlink" viewBox="0 0 224.22 201.53">
  <defs>
    <style>
      .cls-1 {
        fill: #372aac;
      }

      .cls-2 {
        fill: none;
      }

      .cls-3 {
        fill: #a3b3ff;
      }

      .cls-4 {
        fill: #eef2ff;
      }

      .cls-5 {
        clip-path: url(#clippath);
      }
    </style>
    <clipPath id="clippath">
      <path class="cls-2" d="M216.79,3.43l-20.34,25.88H27.78L7.44,3.43C4.99.33,0,2.05,0,6.01v186.64c0,4.91,3.98,8.89,8.89,8.89h206.44c4.91,0,8.89-3.98,8.89-8.89V6.01c0-3.95-4.99-5.68-7.44-2.57Z"/>
    </clipPath>
  </defs>
  <g id="_Слой_2-2" data-name="Слой 2">
    <g id="_Шляпник" data-name="Шляпник">
      <path class="cls-3" d="M216.79,3.43l-20.34,25.88H27.78L7.44,3.43C4.99.33,0,2.05,0,6.01v186.64c0,4.91,3.98,8.89,8.89,8.89h206.44c4.91,0,8.89-3.98,8.89-8.89V6.01c0-3.95-4.99-5.68-7.44-2.57Z"/>
      <g class="cls-5">
        <polygon class="cls-1" points="246.91 110.26 112.11 148.04 -20.64 114.71 -8.64 210.26 238.02 213.38 246.91 110.26"/>
        <g>
          <polygon class="cls-4" points="112.11 148.04 130.33 187.6 240.11 124.04 237.89 91.98 112.11 148.04"/>
          <polygon class="cls-4" points="112.11 148.04 93.89 187.6 -15.89 124.04 -13.67 91.98 112.11 148.04"/>
        </g>
      </g>
      <circle cx="193.94" cy="73.37" r="8.39"/>
      <circle cx="30.28" cy="73.37" r="8.39"/>
      <path d="M123.42,91.19c0,2.32-.28,5.33-1.78,7.23-1.31,1.67-3.55.99-4.82-.35-1.67-1.75-2.36-4.45-2.87-6.74-.62-2.75-.78-5.56-.56-8.36.07-.92-.57-1.39-1.28-1.43-.71.04-1.35.52-1.28,1.43.22,2.8.06,5.62-.56,8.36-.52,2.29-1.21,4.99-2.87,6.74-1.28,1.34-3.51,2.02-4.82.35-1.5-1.9-1.77-4.91-1.78-7.23,0-1.93-3-1.93-3,0,0,3.11.54,6.77,2.57,9.25,1.94,2.37,5.37,2.51,7.83.86,1.95-1.31,3.11-3.38,3.91-5.55.8,2.18,1.96,4.25,3.91,5.55,2.46,1.65,5.89,1.51,7.83-.86,2.03-2.48,2.57-6.14,2.57-9.25,0-1.93-3-1.93-3,0Z"/>
      <path class="cls-1" d="M144.47,21.58l-10.5,2.49c-.44.1-.89.19-1.33.29-.3-3.17-1.85-9.07-2.85-11.99-.95-2.76-3.5-8.77-4.99-10.55-1.39-1.67-3.81-2.6-5.64-.98-1.63,1.44-2.61,3.82-3.49,5.76-1.26,2.78-2.43,5.6-3.57,8.44-1.14-2.84-2.31-5.66-3.57-8.44-.88-1.94-1.86-4.31-3.49-5.76-1.82-1.62-4.24-.69-5.64.98-1.49,1.78-4.04,7.79-4.99,10.55-1,2.91-2.55,8.82-2.84,11.99-.44-.1-.88-.2-1.33-.29l-10.5-2.49c-1.91-.6-2.06.54-1.49,3.05.78,3.47,2.17,7.08,4.13,10.06,1.94,2.96,4.83,4.73,8,5.98,3.17,1.25,6.53,3.15,21.72,3.15s18.56-1.9,21.72-3.15c3.17-1.25,6.05-3.03,8-5.98,1.96-2.98,3.35-6.59,4.13-10.06.56-2.51.42-3.64-1.49-3.05Z"/>
    </g>
  </g>
</svg>