<?xml version="1.0" encoding="UTF-8"?>
<svg id="_Слой_2" data-name="Слой 2" xmlns="http://www.w3.org/2000/svg" viewBox="0 0 224.22 139.7">
  <defs>
    <style>
      .cls-1 {
        fill: #e17100;
      }

      .cls-2 {
        fill: #ffb900;
      }
    </style>
  </defs>
  <g id="_Слой_2-2" data-name="Слой 2">
    <g id="_Оранжевый" data-name="Оранжевый">
      <g>
        <path class="cls-2" d="M8.89,133.7c-1.59,0-2.89-1.3-2.89-2.89V9.48l17.06,21.7c1.14,1.45,2.88,2.29,4.72,2.29h168.67c1.84,0,3.58-.84,4.72-2.29l17.06-21.7v121.33c0,1.59-1.3,2.89-2.89,2.89H8.89Z"/>
        <path class="cls-1" d="M212.22,26.82v100.88H12V26.82l6.34,8.07c2.28,2.89,5.75,4.58,9.43,4.58h168.67c3.68,0,7.16-1.69,9.43-4.58l6.34-8.07M220.02,0C218.85,0,217.66.49,216.79,1.6l-20.34,25.88H27.78L7.44,1.6C6.57.49,5.38,0,4.2,0,2.07,0,0,1.62,0,4.17v126.64c0,4.91,3.98,8.89,8.89,8.89h206.44c4.91,0,8.89-3.98,8.89-8.89V4.17C224.22,1.62,222.15,0,220.02,0h0Z"/>
      </g>
      <circle class="cls-1" cx="193.94" cy="71.53" r="8.39"/>
      <circle class="cls-1" cx="30.28" cy="71.53" r="8.39"/>
    </g>
  </g>
</svg>